<!DOCTYPE svg PUBLIC "-//W3C//DTD SVG 1.1//EN" "http://www.w3.org/Graphics/SVG/1.1/DTD/svg11.dtd">
<!-- Uploaded to: SVG Repo, www.svgrepo.com, Transformed by: SVG Repo Mixer Tools -->
<svg version="1.0" id="Layer_1" xmlns="http://www.w3.org/2000/svg" xmlns:xlink="http://www.w3.org/1999/xlink" width="800px" height="800px" viewBox="0 0 64 64" enable-background="new 0 0 64 64" xml:space="preserve" fill="#ffffff" stroke="#ffffff">
<g id="SVGRepo_bgCarrier" stroke-width="0"/>
<g id="SVGRepo_tracerCarrier" stroke-linecap="round" stroke-linejoin="round"/>
<g id="SVGRepo_iconCarrier"> <path fill="#ffffff" d="M60,4H48c0-2.211-1.789-4-4-4s-4,1.789-4,4H24c0-2.211-1.789-4-4-4s-4,1.789-4,4H4C1.789,4,0,5.789,0,8v52 c0,2.211,1.789,4,4,4h56c2.211,0,4-1.789,4-4V8C64,5.789,62.211,4,60,4z M8,12h8c0,2.211,1.789,4,4,4s4-1.789,4-4h16 c0,2.211,1.789,4,4,4s4-1.789,4-4h8v8H8V12z"/> </g>
</svg>